<svg width="14" height="18" viewBox="0 0 14 18" fill="none" xmlns="http://www.w3.org/2000/svg">
<path d="M1.69469 8.3375L5.83032 1.07625C5.9653 0.839221 6.16076 0.642264 6.39675 0.505485C6.63274 0.368706 6.90081 0.297005 7.17357 0.297704C7.44633 0.298403 7.71403 0.371477 7.94931 0.509464C8.1846 0.647451 8.37905 0.845407 8.51282 1.08312L12.7241 8.56437H12.7172C13.1882 9.46396 13.4333 10.4646 13.4316 11.48C13.4316 14.9531 10.6159 17.7687 7.14282 17.7687C3.66969 17.7687 0.854065 14.9531 0.854065 11.48C0.854065 10.3912 1.13031 9.3675 1.61656 8.475H1.61531L1.65469 8.40625L1.69469 8.3375Z" fill="url(#paint0_linear_341_2954)"/>
<path d="M1.69469 8.3375L5.83032 1.07625C5.9653 0.839221 6.16076 0.642264 6.39675 0.505485C6.63274 0.368706 6.90081 0.297005 7.17357 0.297704C7.44633 0.298403 7.71403 0.371477 7.94931 0.509464C8.1846 0.647451 8.37905 0.845407 8.51282 1.08312L12.7241 8.56437H12.7172C13.1882 9.46396 13.4333 10.4646 13.4316 11.48C13.4316 14.9531 10.6159 17.7687 7.14282 17.7687C3.66969 17.7687 0.854065 14.9531 0.854065 11.48C0.854065 10.3912 1.13031 9.3675 1.61656 8.475H1.61531L1.65469 8.40625L1.69469 8.3375Z" fill="url(#paint1_radial_341_2954)"/>
<path d="M1.69469 8.3375L5.83032 1.07625C5.9653 0.839221 6.16076 0.642264 6.39675 0.505485C6.63274 0.368706 6.90081 0.297005 7.17357 0.297704C7.44633 0.298403 7.71403 0.371477 7.94931 0.509464C8.1846 0.647451 8.37905 0.845407 8.51282 1.08312L12.7241 8.56437H12.7172C13.1882 9.46396 13.4333 10.4646 13.4316 11.48C13.4316 14.9531 10.6159 17.7687 7.14282 17.7687C3.66969 17.7687 0.854065 14.9531 0.854065 11.48C0.854065 10.3912 1.13031 9.3675 1.61656 8.475H1.61531L1.65469 8.40625L1.69469 8.3375Z" fill="url(#paint2_radial_341_2954)"/>
<path d="M1.69469 8.3375L5.83032 1.07625C5.9653 0.839221 6.16076 0.642264 6.39675 0.505485C6.63274 0.368706 6.90081 0.297005 7.17357 0.297704C7.44633 0.298403 7.71403 0.371477 7.94931 0.509464C8.1846 0.647451 8.37905 0.845407 8.51282 1.08312L12.7241 8.56437H12.7172C13.1882 9.46396 13.4333 10.4646 13.4316 11.48C13.4316 14.9531 10.6159 17.7687 7.14282 17.7687C3.66969 17.7687 0.854065 14.9531 0.854065 11.48C0.854065 10.3912 1.13031 9.3675 1.61656 8.475H1.61531L1.65469 8.40625L1.69469 8.3375Z" fill="url(#paint3_radial_341_2954)"/>
<path d="M1.69469 8.3375L5.83032 1.07625C5.9653 0.839221 6.16076 0.642264 6.39675 0.505485C6.63274 0.368706 6.90081 0.297005 7.17357 0.297704C7.44633 0.298403 7.71403 0.371477 7.94931 0.509464C8.1846 0.647451 8.37905 0.845407 8.51282 1.08312L12.7241 8.56437H12.7172C13.1882 9.46396 13.4333 10.4646 13.4316 11.48C13.4316 14.9531 10.6159 17.7687 7.14282 17.7687C3.66969 17.7687 0.854065 14.9531 0.854065 11.48C0.854065 10.3912 1.13031 9.3675 1.61656 8.475H1.61531L1.65469 8.40625L1.69469 8.3375Z" fill="url(#paint4_linear_341_2954)"/>
<defs>
<linearGradient id="paint0_linear_341_2954" x1="7.14282" y1="4.46875" x2="7.14282" y2="17.2812" gradientUnits="userSpaceOnUse">
<stop stop-color="#FD4452"/>
<stop offset="1" stop-color="#FF1F5D"/>
</linearGradient>
<radialGradient id="paint1_radial_341_2954" cx="0" cy="0" r="1" gradientUnits="userSpaceOnUse" gradientTransform="translate(7.14282 6.97937) rotate(90) scale(10.7904 9.49725)">
<stop offset="0.901" stop-color="#FE7C86" stop-opacity="0"/>
<stop offset="1" stop-color="#FE7C86"/>
</radialGradient>
<radialGradient id="paint2_radial_341_2954" cx="0" cy="0" r="1" gradientUnits="userSpaceOnUse" gradientTransform="translate(11.7541 10.3744) rotate(143.778) scale(6.415 4.02611)">
<stop stop-color="#FEB4BA"/>
<stop offset="1" stop-color="#FEB4BA" stop-opacity="0"/>
</radialGradient>
<radialGradient id="paint3_radial_341_2954" cx="0" cy="0" r="1" gradientUnits="userSpaceOnUse" gradientTransform="translate(9.80907 1.475) rotate(61.928) scale(9.52631 4.69903)">
<stop stop-color="#FEA2A9"/>
<stop offset="1" stop-color="#FEA2A9" stop-opacity="0"/>
</radialGradient>
<linearGradient id="paint4_linear_341_2954" x1="2.96344" y1="5.71875" x2="7.14282" y2="7.125" gradientUnits="userSpaceOnUse">
<stop offset="0.032" stop-color="#E43D4A"/>
<stop offset="1" stop-color="#FD4452" stop-opacity="0"/>
</linearGradient>
</defs>
</svg>
