<svg width="16" height="19" viewBox="0 0 16 19" fill="none" xmlns="http://www.w3.org/2000/svg">
<g filter="url(#filter0_i_341_1858)">
<path d="M10.0795 18.0644C10.2085 18.1306 10.3586 18.1428 10.4966 18.0984C10.565 18.0764 10.6284 18.0412 10.6831 17.9947C10.7379 17.9482 10.7829 17.8914 10.8157 17.8275C10.8485 17.7636 10.8684 17.6939 10.8742 17.6223C10.8801 17.5507 10.8718 17.4787 10.8498 17.4103C10.8278 17.3419 10.7925 17.2786 10.746 17.2238C10.6995 17.1691 10.6427 17.124 10.5788 17.0912L10.0795 18.0644ZM10.5788 17.0912C8.88571 16.2225 8.19634 15.0706 7.90571 13.7981C7.59946 12.4587 7.73071 11.0231 7.73071 9.49187H6.63696C6.63696 10.8831 6.49634 12.5425 6.83946 14.0419C7.19759 15.6081 8.08071 17.0387 10.0795 18.0644L10.5788 17.0912Z" fill="url(#paint0_linear_341_1858)"/>
<path d="M10.0795 18.0644C10.2085 18.1306 10.3586 18.1428 10.4966 18.0984C10.565 18.0764 10.6284 18.0412 10.6831 17.9947C10.7379 17.9482 10.7829 17.8914 10.8157 17.8275C10.8485 17.7636 10.8684 17.6939 10.8742 17.6223C10.8801 17.5507 10.8718 17.4787 10.8498 17.4103C10.8278 17.3419 10.7925 17.2786 10.746 17.2238C10.6995 17.1691 10.6427 17.124 10.5788 17.0912L10.0795 18.0644ZM10.5788 17.0912C8.88571 16.2225 8.19634 15.0706 7.90571 13.7981C7.59946 12.4587 7.73071 11.0231 7.73071 9.49187H6.63696C6.63696 10.8831 6.49634 12.5425 6.83946 14.0419C7.19759 15.6081 8.08071 17.0387 10.0795 18.0644L10.5788 17.0912Z" fill="url(#paint1_radial_341_1858)"/>
<path d="M10.0795 18.0644C10.2085 18.1306 10.3586 18.1428 10.4966 18.0984C10.565 18.0764 10.6284 18.0412 10.6831 17.9947C10.7379 17.9482 10.7829 17.8914 10.8157 17.8275C10.8485 17.7636 10.8684 17.6939 10.8742 17.6223C10.8801 17.5507 10.8718 17.4787 10.8498 17.4103C10.8278 17.3419 10.7925 17.2786 10.746 17.2238C10.6995 17.1691 10.6427 17.124 10.5788 17.0912L10.0795 18.0644ZM10.5788 17.0912C8.88571 16.2225 8.19634 15.0706 7.90571 13.7981C7.59946 12.4587 7.73071 11.0231 7.73071 9.49187H6.63696C6.63696 10.8831 6.49634 12.5425 6.83946 14.0419C7.19759 15.6081 8.08071 17.0387 10.0795 18.0644L10.5788 17.0912Z" fill="url(#paint2_radial_341_1858)"/>
</g>
<path d="M8.51384 13.9C6.76446 12.5781 7.15009 9.40437 7.15009 7.5C9.68946 7.5 11.4238 7.3475 13.0645 8.3825C15.042 9.63 13.7188 12.2787 11.7563 12.0737C12.0588 13.8119 9.97884 15.0069 8.51384 13.9Z" fill="url(#paint3_linear_341_1858)"/>
<path d="M8.51384 13.9C6.76446 12.5781 7.15009 9.40437 7.15009 7.5C9.68946 7.5 11.4238 7.3475 13.0645 8.3825C15.042 9.63 13.7188 12.2787 11.7563 12.0737C12.0588 13.8119 9.97884 15.0069 8.51384 13.9Z" fill="url(#paint4_radial_341_1858)"/>
<path d="M8.51384 13.9C6.76446 12.5781 7.15009 9.40437 7.15009 7.5C9.68946 7.5 11.4238 7.3475 13.0645 8.3825C15.042 9.63 13.7188 12.2787 11.7563 12.0737C12.0588 13.8119 9.97884 15.0069 8.51384 13.9Z" fill="url(#paint5_radial_341_1858)"/>
<path d="M8.51384 13.9C6.76446 12.5781 7.15009 9.40437 7.15009 7.5C9.68946 7.5 11.4238 7.3475 13.0645 8.3825C15.042 9.63 13.7188 12.2787 11.7563 12.0737C12.0588 13.8119 9.97884 15.0069 8.51384 13.9Z" fill="url(#paint6_radial_341_1858)"/>
<path d="M8.51384 13.9C6.76446 12.5781 7.15009 9.40437 7.15009 7.5C9.68946 7.5 11.4238 7.3475 13.0645 8.3825C15.042 9.63 13.7188 12.2787 11.7563 12.0737C12.0588 13.8119 9.97884 15.0069 8.51384 13.9Z" fill="url(#paint7_radial_341_1858)"/>
<path d="M8.51384 13.9C6.76446 12.5781 7.15009 9.40437 7.15009 7.5C9.68946 7.5 11.4238 7.3475 13.0645 8.3825C15.042 9.63 13.7188 12.2787 11.7563 12.0737C12.0588 13.8119 9.97884 15.0069 8.51384 13.9Z" fill="url(#paint8_radial_341_1858)"/>
<path d="M8.51384 13.9C6.76446 12.5781 7.15009 9.40437 7.15009 7.5C9.68946 7.5 11.4238 7.3475 13.0645 8.3825C15.042 9.63 13.7188 12.2787 11.7563 12.0737C12.0588 13.8119 9.97884 15.0069 8.51384 13.9Z" fill="url(#paint9_radial_341_1858)"/>
<path d="M8.51384 13.9C6.76446 12.5781 7.15009 9.40437 7.15009 7.5C9.68946 7.5 11.4238 7.3475 13.0645 8.3825C15.042 9.63 13.7188 12.2787 11.7563 12.0737C12.0588 13.8119 9.97884 15.0069 8.51384 13.9Z" fill="url(#paint10_radial_341_1858)"/>
<path d="M8.51384 13.9C6.76446 12.5781 7.15009 9.40437 7.15009 7.5C9.68946 7.5 11.4238 7.3475 13.0645 8.3825C15.042 9.63 13.7188 12.2787 11.7563 12.0737C12.0588 13.8119 9.97884 15.0069 8.51384 13.9Z" fill="url(#paint11_radial_341_1858)"/>
<g filter="url(#filter1_f_341_1858)">
<path d="M7.29197 12.3625C7.22009 13.4894 7.75259 16.0813 10.4557 17.4413" stroke="url(#paint12_linear_341_1858)" stroke-width="0.3" stroke-linecap="round"/>
</g>
<path d="M7.15009 7.53V7.5C7.44926 7.49958 7.73759 7.49813 8.01509 7.49563C10.0963 7.48063 11.6176 7.46938 13.0651 8.3825C15.0201 9.61625 13.7663 12.2413 11.7595 12.075L7.15009 7.53Z" fill="url(#paint13_linear_341_1858)"/>
<path d="M7.15009 7.53V7.5C7.44926 7.49958 7.73759 7.49813 8.01509 7.49563C10.0963 7.48063 11.6176 7.46938 13.0651 8.3825C15.0201 9.61625 13.7663 12.2413 11.7595 12.075L7.15009 7.53Z" fill="url(#paint14_radial_341_1858)"/>
<g filter="url(#filter2_i_341_1858)">
<path d="M5.81571 13.9C7.56509 12.5775 7.15321 9.40437 7.15321 7.5C4.61446 7.5 2.90509 7.34687 1.26446 8.3825C-0.712411 9.63 0.610714 12.2787 2.57321 12.0737C2.27071 13.8119 4.35071 15.0069 5.81571 13.9Z" fill="url(#paint15_radial_341_1858)"/>
<path d="M5.81571 13.9C7.56509 12.5775 7.15321 9.40437 7.15321 7.5C4.61446 7.5 2.90509 7.34687 1.26446 8.3825C-0.712411 9.63 0.610714 12.2787 2.57321 12.0737C2.27071 13.8119 4.35071 15.0069 5.81571 13.9Z" fill="url(#paint16_radial_341_1858)"/>
<path d="M5.81571 13.9C7.56509 12.5775 7.15321 9.40437 7.15321 7.5C4.61446 7.5 2.90509 7.34687 1.26446 8.3825C-0.712411 9.63 0.610714 12.2787 2.57321 12.0737C2.27071 13.8119 4.35071 15.0069 5.81571 13.9Z" fill="url(#paint17_radial_341_1858)"/>
</g>
<path d="M5.81571 13.9C7.56509 12.5775 7.15321 9.40437 7.15321 7.5C4.61446 7.5 2.90509 7.34687 1.26446 8.3825C-0.712411 9.63 0.610714 12.2787 2.57321 12.0737C2.27071 13.8119 4.35071 15.0069 5.81571 13.9Z" fill="url(#paint18_radial_341_1858)"/>
<path d="M5.81571 13.9C7.56509 12.5775 7.15321 9.40437 7.15321 7.5C4.61446 7.5 2.90509 7.34687 1.26446 8.3825C-0.712411 9.63 0.610714 12.2787 2.57321 12.0737C2.27071 13.8119 4.35071 15.0069 5.81571 13.9Z" fill="url(#paint19_radial_341_1858)"/>
<g filter="url(#filter3_f_341_1858)">
<path d="M3.78572 10.3706L7.02009 7.62938C6.67572 7.695 5.76947 8.06188 5.07509 8.65188C4.29384 9.31625 3.80384 10.1069 3.78572 10.3706Z" fill="url(#paint20_linear_341_1858)"/>
</g>
<g filter="url(#filter4_f_341_1858)">
<path d="M6.91071 8.14375L4.74322 10.2538L6.63697 11.5625C7.01197 10.1875 6.97634 8.71063 6.91071 8.14375Z" fill="url(#paint21_radial_341_1858)"/>
</g>
<g filter="url(#filter5_f_341_1858)">
<path d="M11.5422 11.5093C12.5594 11.7557 13.5531 11.257 13.7618 10.3955C13.9705 9.53401 13.3151 8.63588 12.298 8.38949C11.2808 8.14309 10.287 8.64173 10.0784 9.50323C9.86967 10.3647 10.5251 11.2629 11.5422 11.5093Z" fill="url(#paint22_radial_341_1858)"/>
</g>
<g filter="url(#filter6_f_341_1858)">
<path d="M11.1138 11.5325L7.51634 8.00749C7.88509 8.50749 8.31384 9.05937 9.20634 10.1562C10.0207 11.1569 10.467 11.4575 11.1138 11.5325Z" fill="url(#paint23_radial_341_1858)"/>
</g>
<g filter="url(#filter7_i_341_1858)">
<path d="M8.54446 1.17187C6.98196 2.48 7.20696 5.615 7.20696 7.51937C9.74571 7.51937 11.4551 7.72437 13.0957 6.68937C15.0726 5.44187 13.7495 2.7925 11.787 2.9975C12.0895 1.26 9.95259 -0.00750107 8.54446 1.17187Z" fill="#48D386"/>
<path d="M8.54446 1.17187C6.98196 2.48 7.20696 5.615 7.20696 7.51937C9.74571 7.51937 11.4551 7.72437 13.0957 6.68937C15.0726 5.44187 13.7495 2.7925 11.787 2.9975C12.0895 1.26 9.95259 -0.00750107 8.54446 1.17187Z" fill="url(#paint24_radial_341_1858)"/>
<path d="M8.54446 1.17187C6.98196 2.48 7.20696 5.615 7.20696 7.51937C9.74571 7.51937 11.4551 7.72437 13.0957 6.68937C15.0726 5.44187 13.7495 2.7925 11.787 2.9975C12.0895 1.26 9.95259 -0.00750107 8.54446 1.17187Z" fill="url(#paint25_radial_341_1858)"/>
<path d="M8.54446 1.17187C6.98196 2.48 7.20696 5.615 7.20696 7.51937C9.74571 7.51937 11.4551 7.72437 13.0957 6.68937C15.0726 5.44187 13.7495 2.7925 11.787 2.9975C12.0895 1.26 9.95259 -0.00750107 8.54446 1.17187Z" fill="url(#paint26_radial_341_1858)"/>
<path d="M8.54446 1.17187C6.98196 2.48 7.20696 5.615 7.20696 7.51937C9.74571 7.51937 11.4551 7.72437 13.0957 6.68937C15.0726 5.44187 13.7495 2.7925 11.787 2.9975C12.0895 1.26 9.95259 -0.00750107 8.54446 1.17187Z" fill="url(#paint27_radial_341_1858)" fill-opacity="0.25"/>
<path d="M8.54446 1.17187C6.98196 2.48 7.20696 5.615 7.20696 7.51937C9.74571 7.51937 11.4551 7.72437 13.0957 6.68937C15.0726 5.44187 13.7495 2.7925 11.787 2.9975C12.0895 1.26 9.95259 -0.00750107 8.54446 1.17187Z" fill="url(#paint28_radial_341_1858)"/>
</g>
<g filter="url(#filter8_f_341_1858)">
<path d="M12.3399 5.1731C13.0654 5.25491 13.6885 5.01036 13.7318 4.62688C13.775 4.2434 13.222 3.86621 12.4965 3.7844C11.7711 3.7026 11.1479 3.94715 11.1047 4.33063C11.0614 4.7141 11.6145 5.09129 12.3399 5.1731Z" fill="url(#paint29_radial_341_1858)"/>
</g>
<g filter="url(#filter9_i_341_1858)">
<path d="M5.84634 1.17187C7.40884 2.48 7.18384 5.615 7.18384 7.51937C4.64509 7.51937 2.93634 7.72437 1.29571 6.68937C-0.681161 5.44187 0.641339 2.7925 2.60446 2.9975C2.30134 1.26 4.43884 -0.00750107 5.84634 1.17187Z" fill="url(#paint30_linear_341_1858)"/>
<path d="M5.84634 1.17187C7.40884 2.48 7.18384 5.615 7.18384 7.51937C4.64509 7.51937 2.93634 7.72437 1.29571 6.68937C-0.681161 5.44187 0.641339 2.7925 2.60446 2.9975C2.30134 1.26 4.43884 -0.00750107 5.84634 1.17187Z" fill="url(#paint31_radial_341_1858)"/>
<path d="M5.84634 1.17187C7.40884 2.48 7.18384 5.615 7.18384 7.51937C4.64509 7.51937 2.93634 7.72437 1.29571 6.68937C-0.681161 5.44187 0.641339 2.7925 2.60446 2.9975C2.30134 1.26 4.43884 -0.00750107 5.84634 1.17187Z" fill="url(#paint32_radial_341_1858)"/>
<path d="M5.84634 1.17187C7.40884 2.48 7.18384 5.615 7.18384 7.51937C4.64509 7.51937 2.93634 7.72437 1.29571 6.68937C-0.681161 5.44187 0.641339 2.7925 2.60446 2.9975C2.30134 1.26 4.43884 -0.00750107 5.84634 1.17187Z" fill="url(#paint33_radial_341_1858)"/>
<path d="M5.84634 1.17187C7.40884 2.48 7.18384 5.615 7.18384 7.51937C4.64509 7.51937 2.93634 7.72437 1.29571 6.68937C-0.681161 5.44187 0.641339 2.7925 2.60446 2.9975C2.30134 1.26 4.43884 -0.00750107 5.84634 1.17187Z" fill="url(#paint34_radial_341_1858)"/>
<path d="M5.84634 1.17187C7.40884 2.48 7.18384 5.615 7.18384 7.51937C4.64509 7.51937 2.93634 7.72437 1.29571 6.68937C-0.681161 5.44187 0.641339 2.7925 2.60446 2.9975C2.30134 1.26 4.43884 -0.00750107 5.84634 1.17187Z" fill="url(#paint35_radial_341_1858)"/>
</g>
<g filter="url(#filter10_f_341_1858)">
<path d="M3.80571 2.96875L6.96946 7.30438C6.96946 6.35688 6.96946 4.6875 6.57884 3.14438C6.33321 2.175 5.65134 0.781255 4.16634 1.15188C2.97884 1.44875 3.57134 2.7925 3.80509 2.96875" fill="url(#paint36_radial_341_1858)"/>
<path d="M3.80571 2.96875L6.96946 7.30438C6.96946 6.35688 6.96946 4.6875 6.57884 3.14438C6.33321 2.175 5.65134 0.781255 4.16634 1.15188C2.97884 1.44875 3.57134 2.7925 3.80509 2.96875" fill="url(#paint37_radial_341_1858)"/>
</g>
<g filter="url(#filter11_f_341_1858)">
<path d="M3.31259 3.58376L6.61259 7.03126C6.04696 6.74813 5.50946 6.55251 4.63071 5.62501C3.72384 4.66751 3.31259 3.89001 3.31259 3.58376Z" fill="url(#paint38_linear_341_1858)"/>
</g>
<g filter="url(#filter12_f_341_1858)">
<path d="M11.2761 2.477C11.1868 1.75243 10.804 1.20329 10.421 1.25047C10.038 1.29764 9.79983 1.92327 9.88908 2.64785C9.97833 3.37242 10.3612 3.92156 10.7442 3.87439C11.1272 3.82721 11.3653 3.20158 11.2761 2.477Z" fill="url(#paint39_radial_341_1858)"/>
</g>
<defs>
<filter id="filter0_i_341_1858" x="6.60843" y="9.34187" width="4.41761" height="8.78283" filterUnits="userSpaceOnUse" color-interpolation-filters="sRGB">
<feFlood flood-opacity="0" result="BackgroundImageFix"/>
<feBlend mode="normal" in="SourceGraphic" in2="BackgroundImageFix" result="shape"/>
<feColorMatrix in="SourceAlpha" type="matrix" values="0 0 0 0 0 0 0 0 0 0 0 0 0 0 0 0 0 0 127 0" result="hardAlpha"/>
<feOffset dx="0.15" dy="-0.15"/>
<feGaussianBlur stdDeviation="0.5"/>
<feComposite in2="hardAlpha" operator="arithmetic" k2="-1" k3="1"/>
<feColorMatrix type="matrix" values="0 0 0 0 0.243137 0 0 0 0 0.380392 0 0 0 0 0.478431 0 0 0 1 0"/>
<feBlend mode="normal" in2="shape" result="effect1_innerShadow_341_1858"/>
</filter>
<filter id="filter1_f_341_1858" x="6.73589" y="11.8125" width="4.26985" height="6.1788" filterUnits="userSpaceOnUse" color-interpolation-filters="sRGB">
<feFlood flood-opacity="0" result="BackgroundImageFix"/>
<feBlend mode="normal" in="SourceGraphic" in2="BackgroundImageFix" result="shape"/>
<feGaussianBlur stdDeviation="0.2" result="effect1_foregroundBlur_341_1858"/>
</filter>
<filter id="filter2_i_341_1858" x="0.287405" y="7.49202" width="6.90802" height="6.83577" filterUnits="userSpaceOnUse" color-interpolation-filters="sRGB">
<feFlood flood-opacity="0" result="BackgroundImageFix"/>
<feBlend mode="normal" in="SourceGraphic" in2="BackgroundImageFix" result="shape"/>
<feColorMatrix in="SourceAlpha" type="matrix" values="0 0 0 0 0 0 0 0 0 0 0 0 0 0 0 0 0 0 127 0" result="hardAlpha"/>
<feOffset/>
<feGaussianBlur stdDeviation="1"/>
<feComposite in2="hardAlpha" operator="arithmetic" k2="-1" k3="1"/>
<feColorMatrix type="matrix" values="0 0 0 0 0.0901961 0 0 0 0 0.576471 0 0 0 0 0.313726 0 0 0 1 0"/>
<feBlend mode="normal" in2="shape" result="effect1_innerShadow_341_1858"/>
</filter>
<filter id="filter3_f_341_1858" x="3.28572" y="7.12938" width="4.23438" height="3.74126" filterUnits="userSpaceOnUse" color-interpolation-filters="sRGB">
<feFlood flood-opacity="0" result="BackgroundImageFix"/>
<feBlend mode="normal" in="SourceGraphic" in2="BackgroundImageFix" result="shape"/>
<feGaussianBlur stdDeviation="0.25" result="effect1_foregroundBlur_341_1858"/>
</filter>
<filter id="filter4_f_341_1858" x="4.24322" y="7.64375" width="3.20908" height="4.41875" filterUnits="userSpaceOnUse" color-interpolation-filters="sRGB">
<feFlood flood-opacity="0" result="BackgroundImageFix"/>
<feBlend mode="normal" in="SourceGraphic" in2="BackgroundImageFix" result="shape"/>
<feGaussianBlur stdDeviation="0.25" result="effect1_foregroundBlur_341_1858"/>
</filter>
<filter id="filter5_f_341_1858" x="8.78962" y="7.07652" width="6.26094" height="5.7457" filterUnits="userSpaceOnUse" color-interpolation-filters="sRGB">
<feFlood flood-opacity="0" result="BackgroundImageFix"/>
<feBlend mode="normal" in="SourceGraphic" in2="BackgroundImageFix" result="shape"/>
<feGaussianBlur stdDeviation="0.625" result="effect1_foregroundBlur_341_1858"/>
</filter>
<filter id="filter6_f_341_1858" x="7.11634" y="7.60749" width="4.3975" height="4.32499" filterUnits="userSpaceOnUse" color-interpolation-filters="sRGB">
<feFlood flood-opacity="0" result="BackgroundImageFix"/>
<feBlend mode="normal" in="SourceGraphic" in2="BackgroundImageFix" result="shape"/>
<feGaussianBlur stdDeviation="0.2" result="effect1_foregroundBlur_341_1858"/>
</filter>
<filter id="filter7_i_341_1858" x="7.19571" y="0.462799" width="7.12706" height="7.07307" filterUnits="userSpaceOnUse" color-interpolation-filters="sRGB">
<feFlood flood-opacity="0" result="BackgroundImageFix"/>
<feBlend mode="normal" in="SourceGraphic" in2="BackgroundImageFix" result="shape"/>
<feColorMatrix in="SourceAlpha" type="matrix" values="0 0 0 0 0 0 0 0 0 0 0 0 0 0 0 0 0 0 127 0" result="hardAlpha"/>
<feOffset dx="0.25" dy="-0.25"/>
<feGaussianBlur stdDeviation="0.5"/>
<feComposite in2="hardAlpha" operator="arithmetic" k2="-1" k3="1"/>
<feColorMatrix type="matrix" values="0 0 0 0 0.227451 0 0 0 0 0.596078 0 0 0 0 0.352941 0 0 0 1 0"/>
<feBlend mode="normal" in2="shape" result="effect1_innerShadow_341_1858"/>
</filter>
<filter id="filter8_f_341_1858" x="10.1023" y="2.76863" width="4.63184" height="3.42024" filterUnits="userSpaceOnUse" color-interpolation-filters="sRGB">
<feFlood flood-opacity="0" result="BackgroundImageFix"/>
<feBlend mode="normal" in="SourceGraphic" in2="BackgroundImageFix" result="shape"/>
<feGaussianBlur stdDeviation="0.5" result="effect1_foregroundBlur_341_1858"/>
</filter>
<filter id="filter9_i_341_1858" x="0.318506" y="0.462799" width="7.12658" height="7.07307" filterUnits="userSpaceOnUse" color-interpolation-filters="sRGB">
<feFlood flood-opacity="0" result="BackgroundImageFix"/>
<feBlend mode="normal" in="SourceGraphic" in2="BackgroundImageFix" result="shape"/>
<feColorMatrix in="SourceAlpha" type="matrix" values="0 0 0 0 0 0 0 0 0 0 0 0 0 0 0 0 0 0 127 0" result="hardAlpha"/>
<feOffset dx="0.25" dy="-0.25"/>
<feGaussianBlur stdDeviation="0.5"/>
<feComposite in2="hardAlpha" operator="arithmetic" k2="-1" k3="1"/>
<feColorMatrix type="matrix" values="0 0 0 0 0.211765 0 0 0 0 0.505882 0 0 0 0 0.407843 0 0 0 1 0"/>
<feBlend mode="normal" in2="shape" result="effect1_innerShadow_341_1858"/>
</filter>
<filter id="filter10_f_341_1858" x="2.69935" y="0.340668" width="5.02011" height="7.71371" filterUnits="userSpaceOnUse" color-interpolation-filters="sRGB">
<feFlood flood-opacity="0" result="BackgroundImageFix"/>
<feBlend mode="normal" in="SourceGraphic" in2="BackgroundImageFix" result="shape"/>
<feGaussianBlur stdDeviation="0.375" result="effect1_foregroundBlur_341_1858"/>
</filter>
<filter id="filter11_f_341_1858" x="2.81259" y="3.08376" width="4.3" height="4.44749" filterUnits="userSpaceOnUse" color-interpolation-filters="sRGB">
<feFlood flood-opacity="0" result="BackgroundImageFix"/>
<feBlend mode="normal" in="SourceGraphic" in2="BackgroundImageFix" result="shape"/>
<feGaussianBlur stdDeviation="0.25" result="effect1_foregroundBlur_341_1858"/>
</filter>
<filter id="filter12_f_341_1858" x="8.87034" y="0.247635" width="3.42449" height="4.62958" filterUnits="userSpaceOnUse" color-interpolation-filters="sRGB">
<feFlood flood-opacity="0" result="BackgroundImageFix"/>
<feBlend mode="normal" in="SourceGraphic" in2="BackgroundImageFix" result="shape"/>
<feGaussianBlur stdDeviation="0.5" result="effect1_foregroundBlur_341_1858"/>
</filter>
<linearGradient id="paint0_linear_341_1858" x1="7.51634" y1="11.1719" x2="10.6413" y2="18.0075" gradientUnits="userSpaceOnUse">
<stop stop-color="#18554D"/>
<stop offset="1" stop-color="#509E85"/>
</linearGradient>
<radialGradient id="paint1_radial_341_1858" cx="0" cy="0" r="1" gradientUnits="userSpaceOnUse" gradientTransform="translate(10.9245 17.5781) rotate(167.692) scale(0.549748 0.587913)">
<stop stop-color="#6AAC9A"/>
<stop offset="1" stop-color="#6AAC9A" stop-opacity="0"/>
</radialGradient>
<radialGradient id="paint2_radial_341_1858" cx="0" cy="0" r="1" gradientUnits="userSpaceOnUse" gradientTransform="translate(8.05384 13.4275) rotate(169.611) scale(0.595704 3.46296)">
<stop stop-color="#557C70"/>
<stop offset="1" stop-color="#557C70" stop-opacity="0"/>
</radialGradient>
<linearGradient id="paint3_linear_341_1858" x1="6.81321" y1="7.73437" x2="11.032" y2="11.4844" gradientUnits="userSpaceOnUse">
<stop stop-color="#2C9C60"/>
<stop offset="1" stop-color="#3CCE7F"/>
</linearGradient>
<radialGradient id="paint4_radial_341_1858" cx="0" cy="0" r="1" gradientUnits="userSpaceOnUse" gradientTransform="translate(14.3529 10.7029) rotate(-161.184) scale(5.57117 2.65711)">
<stop stop-color="#46D282"/>
<stop offset="1" stop-color="#46D282" stop-opacity="0"/>
</radialGradient>
<radialGradient id="paint5_radial_341_1858" cx="0" cy="0" r="1" gradientUnits="userSpaceOnUse" gradientTransform="translate(12.7507 13.7106) rotate(-139.207) scale(2.86992 3.23896)">
<stop stop-color="#43D592"/>
<stop offset="1" stop-color="#43D592" stop-opacity="0"/>
</radialGradient>
<radialGradient id="paint6_radial_341_1858" cx="0" cy="0" r="1" gradientUnits="userSpaceOnUse" gradientTransform="translate(12.2627 12.7346) rotate(178.075) scale(2.32553 4.38106)">
<stop stop-color="#45DF94"/>
<stop offset="1" stop-color="#45DF94" stop-opacity="0"/>
</radialGradient>
<radialGradient id="paint7_radial_341_1858" cx="0" cy="0" r="1" gradientUnits="userSpaceOnUse" gradientTransform="translate(7.32134 7.695) rotate(44.627) scale(4.57631 0.506564)">
<stop stop-color="#249F5C"/>
<stop offset="1" stop-color="#249F5C" stop-opacity="0"/>
</radialGradient>
<radialGradient id="paint8_radial_341_1858" cx="0" cy="0" r="1" gradientUnits="userSpaceOnUse" gradientTransform="translate(10.7584 6.95281) rotate(99.541) scale(1.08929 5.10981)">
<stop stop-color="#439059"/>
<stop offset="1" stop-color="#439059" stop-opacity="0"/>
</radialGradient>
<radialGradient id="paint9_radial_341_1858" cx="0" cy="0" r="1" gradientUnits="userSpaceOnUse" gradientTransform="translate(12.0479 12.7546) rotate(-179.091) scale(1.23062 1.46652)">
<stop stop-color="#4DD695"/>
<stop offset="1" stop-color="#4DD695" stop-opacity="0"/>
</radialGradient>
<radialGradient id="paint10_radial_341_1858" cx="0" cy="0" r="1" gradientUnits="userSpaceOnUse" gradientTransform="translate(11.657 10.0387) rotate(-179.576) scale(5.27358 11.9521)">
<stop offset="0.624" stop-color="#1D9453" stop-opacity="0"/>
<stop offset="1" stop-color="#1D9453"/>
</radialGradient>
<radialGradient id="paint11_radial_341_1858" cx="0" cy="0" r="1" gradientUnits="userSpaceOnUse" gradientTransform="translate(10.5782 9.375) rotate(103.007) scale(5.53258 4.30383)">
<stop offset="0.841" stop-color="#438882" stop-opacity="0"/>
<stop offset="0.969" stop-color="#438882"/>
</radialGradient>
<linearGradient id="paint12_linear_341_1858" x1="10.4557" y1="17.3044" x2="7.15509" y2="12.7538" gradientUnits="userSpaceOnUse">
<stop stop-color="#69AA99"/>
<stop offset="1" stop-color="#69AA99" stop-opacity="0"/>
</linearGradient>
<linearGradient id="paint13_linear_341_1858" x1="6.77446" y1="9.78875" x2="8.92259" y2="8.105" gradientUnits="userSpaceOnUse">
<stop stop-color="#219756"/>
<stop offset="1" stop-color="#219756" stop-opacity="0"/>
</linearGradient>
<radialGradient id="paint14_radial_341_1858" cx="0" cy="0" r="1" gradientUnits="userSpaceOnUse" gradientTransform="translate(11.3838 8.65188) rotate(88.2643) scale(3.86896 9.20981)">
<stop offset="0.821" stop-color="#438882" stop-opacity="0"/>
<stop offset="1" stop-color="#438882"/>
</radialGradient>
<radialGradient id="paint15_radial_341_1858" cx="0" cy="0" r="1" gradientUnits="userSpaceOnUse" gradientTransform="translate(5.09442 9.92182) rotate(-47.586) scale(4.28567 4.19242)">
<stop stop-color="#53CE8D"/>
<stop offset="1" stop-color="#39B97C"/>
</radialGradient>
<radialGradient id="paint16_radial_341_1858" cx="0" cy="0" r="1" gradientUnits="userSpaceOnUse" gradientTransform="translate(5.11384 9.375) rotate(-43.4518) scale(3.06709 0.441405)">
<stop stop-color="#1FAE5A"/>
<stop offset="1" stop-color="#1FAE5A" stop-opacity="0"/>
</radialGradient>
<radialGradient id="paint17_radial_341_1858" cx="0" cy="0" r="1" gradientUnits="userSpaceOnUse" gradientTransform="translate(7.19571 7.49187) rotate(135.971) scale(4.62005 0.0546716)">
<stop offset="0.366" stop-color="#6AD392"/>
<stop offset="1" stop-color="#6AD392" stop-opacity="0"/>
</radialGradient>
<radialGradient id="paint18_radial_341_1858" cx="0" cy="0" r="1" gradientUnits="userSpaceOnUse" gradientTransform="translate(1.77946 12.27) rotate(-67.7703) scale(0.606612 0.762134)">
<stop offset="0.21" stop-color="#718C9F"/>
<stop offset="1" stop-color="#718C9F" stop-opacity="0"/>
</radialGradient>
<radialGradient id="paint19_radial_341_1858" cx="0" cy="0" r="1" gradientUnits="userSpaceOnUse" gradientTransform="translate(3.74196 14.4531) rotate(-70.0161) scale(1.10148 4.12327)">
<stop stop-color="#718C9F"/>
<stop offset="1" stop-color="#718C9F" stop-opacity="0"/>
</radialGradient>
<linearGradient id="paint20_linear_341_1858" x1="6.63759" y1="8.20313" x2="2.98509" y2="10.2538" gradientUnits="userSpaceOnUse">
<stop stop-color="#75E2A0"/>
<stop offset="1" stop-color="#72D79A" stop-opacity="0"/>
</linearGradient>
<radialGradient id="paint21_radial_341_1858" cx="0" cy="0" r="1" gradientUnits="userSpaceOnUse" gradientTransform="translate(6.55947 7.89063) rotate(93.1639) scale(3.89265 1.0219)">
<stop stop-color="#6EE79D"/>
<stop offset="1" stop-color="#72D79A" stop-opacity="0"/>
</radialGradient>
<radialGradient id="paint22_radial_341_1858" cx="0" cy="0" r="1" gradientUnits="userSpaceOnUse" gradientTransform="translate(14.0206 9.70703) rotate(-178.768) scale(3.40521 1.76354)">
<stop stop-color="#81FFB3"/>
<stop offset="1" stop-color="#81FFB3" stop-opacity="0"/>
</radialGradient>
<radialGradient id="paint23_radial_341_1858" cx="0" cy="0" r="1" gradientUnits="userSpaceOnUse" gradientTransform="translate(9.69009 10.2187) rotate(136.169) scale(0.472198 2.98809)">
<stop stop-color="#72DDA1"/>
<stop offset="1" stop-color="#72DDA1" stop-opacity="0"/>
</radialGradient>
<radialGradient id="paint24_radial_341_1858" cx="0" cy="0" r="1" gradientUnits="userSpaceOnUse" gradientTransform="translate(11.4538 3.43762) rotate(135) scale(6.62912 6.28187)">
<stop offset="0.279" stop-color="#188A50" stop-opacity="0"/>
<stop offset="1" stop-color="#188A50"/>
</radialGradient>
<radialGradient id="paint25_radial_341_1858" cx="0" cy="0" r="1" gradientUnits="userSpaceOnUse" gradientTransform="translate(12.547 2.14812) rotate(133.688) scale(3.61934 3.80696)">
<stop offset="0.164" stop-color="#75F9A8"/>
<stop offset="1" stop-color="#75F9A8" stop-opacity="0"/>
</radialGradient>
<radialGradient id="paint26_radial_341_1858" cx="0" cy="0" r="1" gradientUnits="userSpaceOnUse" gradientTransform="translate(6.06238 8.78873) rotate(-45) scale(5.52427 3.78412)">
<stop stop-color="#338B6E"/>
<stop offset="1" stop-color="#338B6E" stop-opacity="0"/>
</radialGradient>
<radialGradient id="paint27_radial_341_1858" cx="0" cy="0" r="1" gradientUnits="userSpaceOnUse" gradientTransform="translate(9.76204 5.0579) rotate(136.672) scale(3.78574 0.557775)">
<stop stop-color="#309B69"/>
<stop offset="1" stop-color="#34BB72" stop-opacity="0"/>
</radialGradient>
<radialGradient id="paint28_radial_341_1858" cx="0" cy="0" r="1" gradientUnits="userSpaceOnUse" gradientTransform="translate(12.0576 2.64625) rotate(136.695) scale(4.67005 0.105675)">
<stop stop-color="#79F0AF"/>
<stop offset="1" stop-color="#79F0AF" stop-opacity="0"/>
</radialGradient>
<radialGradient id="paint29_radial_341_1858" cx="0" cy="0" r="1" gradientUnits="userSpaceOnUse" gradientTransform="translate(13.3365 4.47915) rotate(-174.56) scale(1.92273 0.673095)">
<stop stop-color="#80FFB4"/>
<stop offset="1" stop-color="#80FFB4" stop-opacity="0"/>
</radialGradient>
<linearGradient id="paint30_linear_341_1858" x1="3.75696" y1="2.30437" x2="7.19571" y2="7.92937" gradientUnits="userSpaceOnUse">
<stop stop-color="#3AC97D"/>
<stop offset="1" stop-color="#3FAD80"/>
</linearGradient>
<radialGradient id="paint31_radial_341_1858" cx="0" cy="0" r="1" gradientUnits="userSpaceOnUse" gradientTransform="translate(2.10648 2.01165) rotate(45) scale(3.39742 4.59324)">
<stop stop-color="#3BC577"/>
<stop offset="1" stop-color="#3BC577" stop-opacity="0"/>
</radialGradient>
<radialGradient id="paint32_radial_341_1858" cx="0" cy="0" r="1" gradientUnits="userSpaceOnUse" gradientTransform="translate(6.61759 1.73832) rotate(145.105) scale(2.83371 2.75887)">
<stop stop-color="#5AF095"/>
<stop offset="1" stop-color="#5AF095" stop-opacity="0"/>
</radialGradient>
<radialGradient id="paint33_radial_341_1858" cx="0" cy="0" r="1" gradientUnits="userSpaceOnUse" gradientTransform="translate(7.19635 7.53504) rotate(-134.582) scale(6.19312 0.321944)">
<stop offset="0.433" stop-color="#3AA578"/>
<stop offset="1" stop-color="#3AA578" stop-opacity="0"/>
</radialGradient>
<radialGradient id="paint34_radial_341_1858" cx="0" cy="0" r="1" gradientUnits="userSpaceOnUse" gradientTransform="translate(7.28196 7.64625) rotate(-134.009) scale(5.98782 0.0321252)">
<stop offset="0.545" stop-color="#4EB87F"/>
<stop offset="1" stop-color="#4EB87F" stop-opacity="0"/>
</radialGradient>
<radialGradient id="paint35_radial_341_1858" cx="0" cy="0" r="1" gradientUnits="userSpaceOnUse" gradientTransform="translate(2.88759 7.53562) rotate(4.37715) scale(3.8785 1.9879)">
<stop stop-color="#379876"/>
<stop offset="1" stop-color="#379876" stop-opacity="0"/>
</radialGradient>
<radialGradient id="paint36_radial_341_1858" cx="0" cy="0" r="1" gradientUnits="userSpaceOnUse" gradientTransform="translate(6.61821 4.1975) rotate(152.304) scale(1.38969 6.24025)">
<stop stop-color="#77E8A3"/>
<stop offset="1" stop-color="#77E8A3" stop-opacity="0"/>
</radialGradient>
<radialGradient id="paint37_radial_341_1858" cx="0" cy="0" r="1" gradientUnits="userSpaceOnUse" gradientTransform="translate(10.4857 4.58938) rotate(-174.24) scale(6.81175 3.32175)">
<stop stop-color="#77E8A3"/>
<stop offset="0.999" stop-color="#77E8A3" stop-opacity="0"/>
</radialGradient>
<linearGradient id="paint38_linear_341_1858" x1="4.86509" y1="5.73188" x2="5.26571" y2="5.30751" gradientUnits="userSpaceOnUse">
<stop stop-color="#75D79F"/>
<stop offset="1" stop-color="#75D79F" stop-opacity="0"/>
</linearGradient>
<radialGradient id="paint39_radial_341_1858" cx="0" cy="0" r="1" gradientUnits="userSpaceOnUse" gradientTransform="translate(11.2282 3.43757) rotate(-107.078) scale(2.6268 0.919577)">
<stop stop-color="#80FFB4"/>
<stop offset="1" stop-color="#80FFB4" stop-opacity="0"/>
</radialGradient>
</defs>
</svg>
